<svg width="39" height="39" viewBox="0 0 39 39" fill="none" xmlns="http://www.w3.org/2000/svg">
<path d="M28.8134 11.6451L11.1357 29.3228C10.9013 29.5572 10.5833 29.6889 10.2518 29.6889C9.92031 29.6889 9.60237 29.5572 9.36795 29.3228C9.13353 29.0884 9.00183 28.7704 9.00183 28.4389C9.00183 28.1074 9.13353 27.7894 9.36795 27.555L27.0456 9.87735C27.28 9.64293 27.598 9.51123 27.9295 9.51123C28.261 9.51123 28.579 9.64293 28.8134 9.87735C29.0478 10.1118 29.1795 10.4297 29.1795 10.7612C29.1795 11.0928 29.0478 11.4107 28.8134 11.6451Z" fill="white"/>
<path d="M27.5633 11.1269L12.9033 11.1286C12.5713 11.1286 12.253 10.9968 12.0183 10.7621C11.7835 10.5273 11.6517 10.209 11.6517 9.87706C11.6517 9.54512 11.7835 9.22677 12.0183 8.99206C12.253 8.75734 12.5713 8.62548 12.9033 8.62548L28.8132 8.62548C28.9776 8.62527 29.1404 8.6575 29.2924 8.72033C29.4443 8.78315 29.5824 8.87533 29.6986 8.99159C29.8149 9.10785 29.9071 9.24591 29.9699 9.39785C30.0327 9.54979 30.0649 9.71264 30.0647 9.87706L30.0647 25.787C30.0647 26.1189 29.9329 26.4372 29.6982 26.672C29.4634 26.9067 29.1451 27.0385 28.8132 27.0385C28.4812 27.0385 28.1629 26.9067 27.9282 26.672C27.6934 26.4372 27.5616 26.1189 27.5616 25.787L27.5633 11.1269Z" fill="white"/>
</svg>
