<svg width="92" height="90" viewBox="0 0 92 90" fill="none" xmlns="http://www.w3.org/2000/svg">
<g filter="url(#filter0_f_233_1053)">
<path d="M84.2383 30.874L74.5231 27.0891L75.7847 23.8507C76.1193 22.9919 76.0991 22.0352 75.7283 21.1913C75.3576 20.3474 74.6668 19.6853 73.808 19.3507L41.4241 6.73458C40.5652 6.39998 39.6086 6.42027 38.7647 6.79099C37.9208 7.16171 37.2587 7.85248 36.9241 8.71136L35.6625 11.9497L25.9473 8.1649C25.0885 7.8303 24.1318 7.85059 23.2879 8.22131C22.444 8.59202 21.7819 9.2828 21.4473 10.1417L17.6625 19.8568C12.2249 33.8143 14.7738 44.505 24.4402 48.6065C24.9059 51.6299 26.031 54.5139 27.7359 57.0538C29.4408 59.5938 31.6836 61.7275 34.3054 63.3038L31.6686 70.072L25.1918 67.5488L22.6686 74.0255L42.0989 81.5952L44.6221 75.1184L38.1454 72.5952L40.7821 65.827C43.7792 66.4398 46.8744 66.3856 49.8482 65.6684C52.8221 64.9512 55.6016 63.5884 57.9899 61.6768C67.8312 65.1378 77.0053 59.0142 82.4302 45.0891L86.2151 35.374C86.5497 34.5151 86.5294 33.5585 86.1587 32.7146C85.7879 31.8706 85.0972 31.2086 84.2383 30.874ZM24.1393 22.3801L26.6625 15.9033L33.1393 18.4265L24.5224 40.5447C19.7043 35.8702 22.4992 26.59 24.1393 22.3801ZM63.3831 55.6841L71.9999 33.5659L78.4767 36.0891L75.9534 42.5659C74.3133 46.7758 70.0936 55.5009 63.3831 55.6841Z" stroke="white" stroke-width="3"/>
</g>
<defs>
<filter id="filter0_f_233_1053" x="-4" y="-4" width="98" height="98" filterUnits="userSpaceOnUse" color-interpolation-filters="sRGB">
<feFlood flood-opacity="0" result="BackgroundImageFix"/>
<feBlend mode="normal" in="SourceGraphic" in2="BackgroundImageFix" result="shape"/>
<feGaussianBlur stdDeviation="2" result="effect1_foregroundBlur_233_1053"/>
</filter>
</defs>
</svg>
