<svg width="26" height="22" viewBox="0 0 26 22" fill="none" xmlns="http://www.w3.org/2000/svg">
<path d="M16.3334 19.0488L16.3326 19.0495C15.6773 19.5671 15.0807 20.0306 14.5025 20.3686C13.924 20.7067 13.4347 20.8755 13 20.8755C12.5655 20.8755 12.0762 20.7065 11.4975 20.3683C10.919 20.0302 10.3225 19.5669 9.66672 19.0502C9.30574 18.7655 8.93707 18.4813 8.56526 18.1946C6.99725 16.9856 5.37321 15.7335 4.03295 14.2245C2.40058 12.3865 1.25 10.227 1.25 7.42173C1.25 4.66293 2.8091 2.33964 4.95242 1.35994C7.04843 0.401858 9.83901 0.673711 12.4596 3.39679L13 3.95833L13.5404 3.39679C16.1609 0.673799 18.9514 0.402474 21.0475 1.36098C23.1909 2.34116 24.75 4.66483 24.75 7.42298C24.75 10.2277 23.5997 12.3872 21.9675 14.2249C20.625 15.7365 18.9974 16.9903 17.4266 18.2005C17.0576 18.4847 16.6917 18.7666 16.3334 19.0488Z" stroke="#007AFF" stroke-width="1.5"/>
</svg>
