<svg width="40" height="41" viewBox="0 0 40 41" fill="none" xmlns="http://www.w3.org/2000/svg">
<path d="M34.0925 6.4078L38.2825 7.2453C38.5075 7.2903 38.6925 7.4553 38.7575 7.6778C38.7903 7.78588 38.7933 7.90084 38.766 8.01045C38.7387 8.12006 38.6822 8.22023 38.6025 8.3003L35.17 11.7353C34.7587 12.1443 34.2025 12.3743 33.6225 12.3753H30.775L23.625 19.5278C23.7614 20.0429 23.7865 20.5811 23.6986 21.1066C23.6107 21.6321 23.4118 22.1328 23.1152 22.5754C22.8186 23.0181 22.431 23.3924 21.9784 23.6735C21.5258 23.9546 21.0185 24.136 20.4902 24.2057C19.962 24.2753 19.425 24.2316 18.9149 24.0775C18.4049 23.9233 17.9336 23.6622 17.5324 23.3116C17.1312 22.961 16.8093 22.5289 16.5882 22.0442C16.3671 21.5594 16.2518 21.0331 16.25 20.5003C16.2499 19.9249 16.3822 19.3571 16.6367 18.841C16.8912 18.3249 17.261 17.8743 17.7176 17.5241C18.1742 17.1738 18.7053 16.9334 19.2697 16.8213C19.8341 16.7092 20.4167 16.7286 20.9725 16.8778L28.125 9.7228V6.8803C28.125 6.3003 28.355 5.7428 28.765 5.3328L32.2 1.8978C32.2801 1.81812 32.3802 1.76163 32.4898 1.73434C32.5995 1.70705 32.7144 1.70997 32.8225 1.7428C33.045 1.8078 33.21 1.9928 33.255 2.2178L34.0925 6.4078Z" fill="#007AFF"/>
<path d="M4.99998 20.5C5.00255 22.6449 5.46509 24.7643 6.3564 26.7152C7.24771 28.6662 8.54706 30.4033 10.1668 31.8094C11.7865 33.2154 13.689 34.2578 15.7458 34.8661C17.8027 35.4744 19.966 35.6346 22.09 35.3357C24.214 35.0368 26.2492 34.2859 28.0583 33.1336C29.8674 31.9814 31.4083 30.4545 32.5772 28.656C33.746 26.8576 34.5155 24.8294 34.8339 22.7082C35.1522 20.5871 35.0119 18.4223 34.4225 16.36C34.3397 16.119 34.3069 15.8638 34.3259 15.6097C34.345 15.3557 34.4155 15.1082 34.5333 14.8823C34.651 14.6564 34.8135 14.4568 35.0109 14.2957C35.2082 14.1346 35.4363 14.0153 35.6812 13.9452C35.9261 13.875 36.1828 13.8555 36.4355 13.8877C36.6882 13.9199 36.9317 14.0032 37.1512 14.1325C37.3707 14.2618 37.5616 14.4344 37.7122 14.6399C37.8629 14.8453 37.9701 15.0793 38.0275 15.3275C39.1688 19.3213 38.952 23.581 37.4111 27.4383C35.8702 31.2956 33.0924 34.5323 29.5135 36.6405C25.9346 38.7487 21.7571 39.6092 17.6364 39.087C13.5156 38.5648 9.68483 36.6893 6.74498 33.755C3.80834 30.8159 1.93092 26.9847 1.40749 22.863C0.884065 18.7413 1.74427 14.5625 3.85304 10.9827C5.96182 7.40282 9.19975 4.62464 13.0585 3.08434C16.9172 1.54403 21.1782 1.32882 25.1725 2.47249C25.6481 2.61152 26.0493 2.93316 26.2885 3.36712C26.5277 3.80108 26.5854 4.31207 26.4489 4.78843C26.3125 5.26479 25.993 5.66777 25.5604 5.90931C25.1278 6.15086 24.6171 6.21132 24.14 6.07749C21.9064 5.43611 19.5544 5.32246 17.2694 5.74549C14.9844 6.16852 12.8289 7.11668 10.973 8.51516C9.11704 9.91365 7.61143 11.7242 6.57488 13.8041C5.53833 15.8839 4.99919 18.1762 4.99998 20.5Z" fill="#007AFF"/>
<path d="M12.5 20.5003C12.5001 21.8668 12.8733 23.2073 13.5794 24.3773C14.2854 25.5472 15.2975 26.5022 16.5064 27.1392C17.7153 27.7762 19.0752 28.071 20.4394 27.9919C21.8036 27.9128 23.1203 27.4628 24.2475 26.6903C25.3745 25.9159 26.2683 24.8482 26.8323 23.6025C27.3963 22.3568 27.609 20.9807 27.4475 19.6228C27.4038 19.2933 27.4487 18.9581 27.5776 18.6518C27.7065 18.3454 27.9147 18.0789 28.1808 17.8798C28.447 17.6806 28.7614 17.556 29.0916 17.5188C29.4219 17.4815 29.7562 17.533 30.06 17.6678C30.3637 17.8009 30.6267 18.0122 30.8221 18.2801C31.0176 18.548 31.1385 18.863 31.1725 19.1928C31.4441 21.5131 30.9867 23.8603 29.8638 25.9088C28.7408 27.9573 27.008 29.6054 24.9058 30.6244C22.8037 31.6434 20.4364 31.9826 18.1327 31.5951C15.829 31.2076 13.703 30.1126 12.0499 28.462C10.3968 26.8114 9.29848 24.6871 8.90748 22.3839C8.51649 20.0808 8.85217 17.713 9.86794 15.6093C10.8837 13.5056 12.5292 11.7703 14.576 10.6442C16.6227 9.51818 18.9693 9.05721 21.29 9.32533C21.5385 9.34838 21.7798 9.42081 22 9.53837C22.2201 9.65592 22.4146 9.81624 22.5719 10.0099C22.7293 10.2036 22.8464 10.4267 22.9164 10.6663C22.9865 10.9058 23.008 11.1569 22.9797 11.4049C22.9514 11.6528 22.8739 11.8926 22.7517 12.1102C22.6295 12.3278 22.4652 12.5188 22.2682 12.6721C22.0712 12.8254 21.8457 12.9378 21.6047 13.0027C21.3638 13.0676 21.1123 13.0838 20.865 13.0503C19.8141 12.9283 18.7493 13.03 17.7406 13.3487C16.7318 13.6674 15.8019 14.1959 15.0118 14.8995C14.2218 15.6031 13.5896 16.4659 13.1567 17.4312C12.7238 18.3965 12.5 19.4424 12.5 20.5003Z" fill="#007AFF"/>
</svg>
