<svg width="117" height="29" viewBox="0 0 117 29" fill="none" xmlns="http://www.w3.org/2000/svg">
<path d="M24.8 28H17.6V16.6H7.6V28H0.4V-1.90735e-06H7.6V11H17.6V-1.90735e-06H24.8V28ZM28.7788 22.2C36.0854 22.6 41.0321 22.8 43.6188 22.8C44.2321 22.8 44.7121 22.6267 45.0588 22.28C45.4321 21.9067 45.6188 21.4133 45.6188 20.8V17.2H36.4188C33.6188 17.2 31.5788 16.5733 30.2988 15.32C29.0454 14.04 28.4188 12 28.4188 9.2V8C28.4188 5.2 29.0454 3.17333 30.2988 1.92C31.5788 0.639999 33.6188 -1.90735e-06 36.4188 -1.90735e-06H50.4588V5.6H38.0188C36.4188 5.6 35.6188 6.4 35.6188 8V8.8C35.6188 10.4 36.4188 11.2 38.0188 11.2H45.2188C47.8321 11.2 49.7521 11.8133 50.9788 13.04C52.2054 14.2667 52.8188 16.1867 52.8188 18.8V20.8C52.8188 23.4133 52.2054 25.3333 50.9788 26.56C49.7521 27.7867 47.8321 28.4 45.2188 28.4C43.8588 28.4 42.4188 28.3733 40.8988 28.32L37.2188 28.16C34.4988 28.0267 31.6854 27.84 28.7788 27.6V22.2ZM80.4156 12.4L74.8156 22.4H69.2156L63.6156 12.4V28H56.4156V-1.90735e-06H64.0156L72.0156 14.8L80.0156 -1.90735e-06H87.6156V28H80.4156V12.4ZM116.431 27.4C110.191 28.0667 104.458 28.4 99.2313 28.4C96.6179 28.4 94.6979 27.7867 93.4713 26.56C92.2446 25.3333 91.6313 23.4133 91.6313 20.8V8C91.6313 5.2 92.2579 3.17333 93.5113 1.92C94.7913 0.639999 96.8313 -1.90735e-06 99.6313 -1.90735e-06H114.031V5.6H101.231C99.6313 5.6 98.8313 6.4 98.8313 8V20.8C98.8313 21.4133 99.0046 21.9067 99.3513 22.28C99.7246 22.6267 100.218 22.8 100.831 22.8C103.898 22.8 106.698 22.7333 109.231 22.6V16.8H104.031V12H116.431V27.4Z" fill="url(#paint0_linear_252_205)"/>
<defs>
<linearGradient id="paint0_linear_252_205" x1="26.3423" y1="7.81818" x2="53.7492" y2="45.4743" gradientUnits="userSpaceOnUse">
<stop stop-color="#007AFF"/>
<stop offset="1" stop-color="#00FFAA"/>
</linearGradient>
</defs>
</svg>
