<svg width="35" height="35" viewBox="0 0 35 35" fill="none" xmlns="http://www.w3.org/2000/svg">
<path d="M31.7 22.1833L34.0833 19.8L31.7 17.4167L25.75 23.3667L11.4667 9.08333L17.4167 3.13333L15.0333 0.75L12.65 3.13333L10.2667 0.75L6.7 4.31667L4.31667 1.93333L1.93333 4.31667L4.31667 6.7L0.75 10.2667L3.13333 12.65L0.75 15.0333L3.13333 17.4167L9.08333 11.4667L23.3667 25.75L17.4167 31.7L19.8 34.0833L22.1833 31.7L24.5667 34.0833L28.1333 30.5167L30.5167 32.9L32.9 30.5167L30.5167 28.1333L34.0833 24.5667L31.7 22.1833Z" fill="white"/>
</svg>
