<svg width="36" height="37" viewBox="0 0 36 37" fill="none" xmlns="http://www.w3.org/2000/svg">
<path d="M1.36163 32.3415C3.24496 35.0315 11.4316 37.1449 15.2983 32.1082C19.4816 34.1082 26.3816 33.4882 31.9983 30.3549C32.7783 29.9199 33.5183 29.3699 33.97 28.5982C34.9916 26.8565 35.0166 24.4399 33.1533 20.8749C30.045 13.1165 24.4566 6.3082 22.2 3.56987C21.7366 3.14653 18.78 2.54653 16.9783 1.96987C16.1816 1.72487 14.7 1.55987 12.9266 3.89653C12.085 5.00487 8.26663 7.72487 13.1116 9.55487C13.8616 9.74653 14.415 10.0982 17.8383 9.47153C18.285 9.39487 19.3983 9.47153 20.1833 10.8499L21.8216 13.1932C21.9756 13.4103 22.073 13.6623 22.105 13.9265C22.3916 16.4265 22.3816 19.5532 23.775 21.1365C21.6233 19.5815 16.0016 17.7332 11.765 22.9915M1.33496 20.0665C3.24199 18.3664 5.67339 17.37 8.2251 17.2429C10.7768 17.1159 13.2952 17.8658 15.3616 19.3682" stroke="#007AFF" stroke-width="2" stroke-linecap="round" stroke-linejoin="round"/>
</svg>
