<svg width="28" height="34" viewBox="0 0 28 34" fill="none" xmlns="http://www.w3.org/2000/svg">
<path d="M28 32.2957C28 32.6239 27.8678 32.9387 27.6326 33.1707C27.3973 33.4028 27.0782 33.5332 26.7455 33.5332H1.25448C0.921771 33.5332 0.602689 33.4028 0.367429 33.1707C0.132168 32.9387 0 32.6239 0 32.2957C0 25.5307 7.52688 20.2837 14 20.2837C20.4731 20.2837 28 25.5307 28 32.2957ZM22.5305 8.9647C22.5272 10.6283 22.024 12.2537 21.0847 13.6353C20.1454 15.017 18.8119 16.093 17.2529 16.7274C15.6939 17.3618 13.9792 17.526 12.3256 17.1995C10.6719 16.8729 9.15349 16.0702 7.96216 14.8927C6.77083 13.7152 5.96004 12.2157 5.63224 10.5838C5.30444 8.95193 5.47435 7.2608 6.12049 5.72412C6.76663 4.18744 7.86001 2.87417 9.26247 1.95025C10.6649 1.02632 12.3135 0.533206 14 0.533203C16.264 0.537574 18.4337 1.42782 20.033 3.00856C21.6323 4.5893 22.5305 6.73139 22.5305 8.9647Z" fill="white"/>
</svg>
