<svg width="155" height="155" viewBox="0 0 155 155" fill="none" xmlns="http://www.w3.org/2000/svg">
<g filter="url(#filter0_f_230_1147)">
<path d="M112.358 31.7292L98.8985 23.2441L138.461 8.38819L135.105 46.102L124.981 39.7212L123.736 38.9362L122.928 40.167C96.6563 80.1827 55.9718 103.069 17.2205 115.889L8.85267 100.647C43.6847 91.7995 84.404 69.6035 112.732 33.9309L113.772 32.6211L112.358 31.7292ZM143.871 42.9746H145.932V145.932H125.318V51.1546C125.389 51.0546 125.461 50.9542 125.533 50.8532C125.664 50.668 125.797 50.4812 125.93 50.2931L140.243 59.3327L142.324 60.6467L142.538 58.1953L143.871 42.9746ZM16.4921 125.035C20.87 123.638 25.2741 122.123 29.6816 120.493V145.932H9.06836V120.475H10.1043L12.5834 124.994L13.1735 126.07L14.3448 125.705L16.4821 125.039L16.4921 125.035ZM86.5684 145.932V90.4262C90.2671 87.6798 93.9143 84.7793 97.4632 81.7246H107.182V145.932H86.5684ZM47.8184 145.932V113.038C51.8516 111.197 55.8398 109.251 59.8279 107.154H68.4316V145.932H47.8184Z" stroke="white" stroke-width="3"/>
</g>
<defs>
<filter id="filter0_f_230_1147" x="-4" y="-4" width="163" height="163" filterUnits="userSpaceOnUse" color-interpolation-filters="sRGB">
<feFlood flood-opacity="0" result="BackgroundImageFix"/>
<feBlend mode="normal" in="SourceGraphic" in2="BackgroundImageFix" result="shape"/>
<feGaussianBlur stdDeviation="2" result="effect1_foregroundBlur_230_1147"/>
</filter>
</defs>
</svg>
