<svg width="28" height="28" viewBox="0 0 28 28" fill="none" xmlns="http://www.w3.org/2000/svg">
<path d="M26.475 27.5896L16.0383 17.1529C15.205 17.8629 14.2467 18.4124 13.1633 18.8013C12.08 19.1901 10.9911 19.3846 9.89668 19.3846C7.22779 19.3846 4.9689 18.4607 3.12001 16.6129C1.27112 14.7651 0.34668 12.5068 0.34668 9.83792C0.34668 7.16903 1.27001 4.90959 3.11668 3.05959C4.96335 1.20959 7.22112 0.283476 9.89001 0.281254C12.5589 0.279032 14.8189 1.20348 16.67 3.05459C18.5211 4.9057 19.4467 7.16514 19.4467 9.83292C19.4467 10.9907 19.2417 12.1113 18.8317 13.1946C18.4217 14.2779 17.8828 15.2046 17.215 15.9746L27.6517 26.4096L26.475 27.5896ZM9.89834 17.7163C12.1095 17.7163 13.9761 16.9551 15.4983 15.4329C17.0206 13.9107 17.7817 12.0435 17.7817 9.83125C17.7817 7.61903 17.0206 5.75236 15.4983 4.23125C13.9761 2.71014 12.1095 1.94903 9.89834 1.94792C7.68723 1.94681 5.82001 2.70792 4.29668 4.23125C2.77335 5.75459 2.01224 7.62125 2.01335 9.83125C2.01446 12.0413 2.77557 13.9079 4.29668 15.4313C5.81779 16.9546 7.68446 17.7157 9.89668 17.7146" fill="#007AFF"/>
</svg>
