<svg width="37" height="37" viewBox="0 0 37 37" fill="none" xmlns="http://www.w3.org/2000/svg">
<path d="M34.4917 35.5332L21.1138 22.1569C20.0457 23.0669 18.8172 23.7711 17.4286 24.2696C16.04 24.768 14.6442 25.0172 13.2413 25.0172C9.82032 25.0172 6.92484 23.8331 4.5549 21.4649C2.18497 19.0966 1 16.2022 1 12.7816C1 9.361 2.18354 6.46516 4.55063 4.09409C6.91772 1.72302 9.81178 0.536056 13.2328 0.533208C16.6538 0.53036 19.5507 1.71518 21.9235 4.08768C24.2963 6.46017 25.4827 9.35601 25.4827 12.7752C25.4827 14.2591 25.2199 15.6952 24.6944 17.0837C24.1688 18.4722 23.4781 19.6598 22.6221 20.6467L36 34.0208L34.4917 35.5332ZM13.2435 22.8789C16.0777 22.8789 18.4704 21.9035 20.4217 19.9525C22.3729 18.0015 23.3485 15.6084 23.3485 12.7731C23.3485 9.93774 22.3729 7.54531 20.4217 5.59576C18.4704 3.64622 16.0777 2.67073 13.2435 2.66931C10.4092 2.66788 8.01581 3.64337 6.06318 5.59576C4.11054 7.54816 3.13494 9.94059 3.13636 12.7731C3.13779 15.6055 4.11339 17.998 6.06318 19.9504C8.01296 21.9028 10.4057 22.8782 13.2413 22.8768" fill="white"/>
<path d="M13.2435 22.8789C16.0777 22.8789 18.4704 21.9035 20.4217 19.9525C22.3729 18.0015 23.3485 15.6084 23.3485 12.7731C23.3485 9.93774 22.3729 7.54531 20.4217 5.59576C18.4704 3.64622 16.0777 2.67073 13.2435 2.66931C10.4092 2.66788 8.01581 3.64337 6.06318 5.59576C4.11054 7.54816 3.13494 9.94059 3.13636 12.7731C3.13779 15.6055 4.11339 17.998 6.06318 19.9504C8.01296 21.9028 10.4057 22.8782 13.2413 22.8768M34.4917 35.5332L21.1138 22.1569C20.0457 23.0669 18.8173 23.7711 17.4286 24.2696C16.04 24.768 14.6442 25.0172 13.2413 25.0172C9.82032 25.0172 6.92484 23.8331 4.5549 21.4649C2.18497 19.0966 1 16.2022 1 12.7816C1 9.361 2.18354 6.46516 4.55063 4.09409C6.91772 1.72302 9.81178 0.536056 13.2328 0.533208C16.6538 0.53036 19.5507 1.71518 21.9235 4.08768C24.2963 6.46017 25.4827 9.35601 25.4827 12.7752C25.4827 14.2591 25.2199 15.6952 24.6944 17.0837C24.1688 18.4722 23.4781 19.6598 22.6221 20.6467L36 34.0208L34.4917 35.5332Z" stroke="white"/>
</svg>
