<svg width="18" height="18" viewBox="0 0 18 18" fill="none" xmlns="http://www.w3.org/2000/svg">
<path d="M16.1416 11.3837L17.3333 10.192L16.1416 9.00033L13.1666 11.9753L6.02496 4.83366L8.99996 1.85866L7.80829 0.666992L6.61663 1.85866L5.42496 0.666992L3.64163 2.45033L2.44996 1.25866L1.25829 2.45033L2.44996 3.64199L0.666626 5.42533L1.85829 6.61699L0.666626 7.80866L1.85829 9.00033L4.83329 6.02533L11.975 13.167L8.99996 16.142L10.1916 17.3337L11.3833 16.142L12.575 17.3337L14.3583 15.5503L15.55 16.742L16.7416 15.5503L15.55 14.3587L17.3333 12.5753L16.1416 11.3837Z" fill="black"/>
</svg>
