<svg width="30" height="30" viewBox="0 0 30 30" fill="none" xmlns="http://www.w3.org/2000/svg">
<path d="M15 30C23.2843 30 30 23.2843 30 15C30 6.71573 23.2843 0 15 0C6.71573 0 0 6.71573 0 15C0 23.2843 6.71573 30 15 30Z" fill="url(#paint0_linear_158_1739)"/>
<path fill-rule="evenodd" clip-rule="evenodd" d="M6.79901 14.8364C11.1682 12.9205 14.0887 11.6822 15.5373 11.0747C19.6962 9.34573 20.5607 9.04199 21.1214 9.04199C21.2383 9.04199 21.5186 9.06536 21.7056 9.20554C21.8457 9.32237 21.8925 9.48592 21.9158 9.60274C21.9392 9.71956 21.9626 9.97657 21.9392 10.1869C21.7056 12.5467 20.7476 18.3177 20.2336 20.9579C20.0233 22.0794 19.6028 22.4532 19.2056 22.4999C18.3411 22.57 17.6635 21.9158 16.8224 21.3784C15.514 20.514 14.7663 19.9766 13.4813 19.1355C12.0093 18.1541 12.9672 17.6168 13.8084 16.7523C14.0186 16.5186 17.8738 13.0373 17.9439 12.7102C17.9439 12.6635 17.9672 12.5233 17.8738 12.4532C17.7803 12.3831 17.6635 12.4065 17.57 12.4298C17.4299 12.4532 15.3271 13.8551 11.2383 16.6121C10.6308 17.0326 10.0934 17.2196 9.60275 17.2196C9.06537 17.2196 8.03733 16.9158 7.2663 16.6588C6.33172 16.3551 5.58406 16.1915 5.65415 15.6775C5.72425 15.3971 6.09808 15.1168 6.79901 14.8364Z" fill="white"/>
<defs>
<linearGradient id="paint0_linear_158_1739" x1="7.02703" y1="8.37662" x2="24.8483" y2="14.0428" gradientUnits="userSpaceOnUse">
<stop stop-color="#007AFF"/>
<stop offset="1" stop-color="#00FFAA"/>
</linearGradient>
</defs>
</svg>
