<svg width="111" height="111" viewBox="0 0 111 111" fill="none" xmlns="http://www.w3.org/2000/svg">
<g filter="url(#filter0_f_230_1153)">
<path d="M74.1064 41.1212L74.1064 41.1208L75.6974 27.9862C75.8847 26.4362 76.016 25.3444 76.0653 24.4797C76.1139 23.6273 76.0746 23.0983 75.9675 22.6713L75.9641 22.6578L75.9642 22.6577C75.6551 21.3755 74.8583 20.2643 73.7432 19.5603C73.4181 19.3607 72.9816 19.1936 72.2191 19.0309C71.4372 18.8641 70.4287 18.7239 68.9806 18.5244L68.9762 18.5237C67.5257 18.3195 66.5176 18.1792 65.7229 18.127C64.9435 18.0759 64.486 18.1199 64.1295 18.224L64.1264 18.2249C62.9523 18.5647 61.918 19.4027 61.2848 20.5827L61.2837 20.5847C61.1132 20.9014 60.8918 21.7309 60.6663 23.088C60.4538 24.3673 60.2693 25.8903 60.0832 27.4303L59.9 28.9465L58.3874 28.7361L30.0269 24.791L28.5676 24.588L28.7444 23.1253L28.7536 23.049C28.9367 21.5339 29.1173 20.0398 29.2155 18.7656C29.3213 17.3934 29.306 16.5278 29.2146 16.1689L29.2124 16.1603L29.2103 16.1516C28.9004 14.8706 28.1036 13.7608 26.9892 13.0576C26.664 12.8579 26.2273 12.6907 25.464 12.5274C24.6815 12.3599 23.6729 12.2186 22.2244 12.0167C22.2243 12.0167 22.2242 12.0167 22.2241 12.0167L22.2087 12.0145C20.7648 11.8136 19.7611 11.6739 18.9683 11.6213C18.1877 11.5695 17.7332 11.6131 17.3815 11.7161L17.3758 11.7178L17.3757 11.7178C16.1999 12.0572 15.169 12.8935 14.5299 14.0814L14.5296 14.0819C14.3269 14.4585 14.1628 14.9543 14.0065 15.7919C13.848 16.641 13.7153 17.7332 13.528 19.2855L13.5279 19.2861L11.9369 32.4211L11.9369 32.4213C11.7497 33.9659 11.6182 35.0584 11.5684 35.9246C11.5194 36.7763 11.5572 37.3083 11.6623 37.7361C12.0031 39.0721 12.8127 40.1803 13.8824 40.8367L13.8859 40.8388C14.2115 41.0398 14.6486 41.2078 15.4153 41.3714C16.1972 41.5382 17.2056 41.6784 18.6537 41.8779L18.6581 41.8785C20.1087 42.0827 21.116 42.2232 21.9102 42.2759C22.687 42.3275 23.1448 42.2848 23.5027 42.1822C24.6805 41.8369 25.7127 41.0014 26.344 39.8212L26.3459 39.8176C26.5169 39.5001 26.7393 38.6695 26.9659 37.3134C27.1795 36.0351 27.3651 34.5131 27.5511 32.9763L27.7346 31.4604L29.247 31.6708L57.6029 35.6159L59.0623 35.819L58.8853 37.2819C58.6992 38.8195 58.5153 40.3418 58.416 41.6367C58.3109 43.0073 58.3254 43.8762 58.4163 44.2383L58.4164 44.2386C58.7516 45.5758 59.564 46.6862 60.6329 47.3446L74.1064 41.1212ZM74.1064 41.1212C73.9192 42.6701 73.7853 43.7624 73.6258 44.6116C73.4685 45.4497 73.3033 45.9475 73.1001 46.325L73.099 46.3269C72.4658 47.507 71.4316 48.3449 70.2574 48.6848L70.2543 48.6857C69.8978 48.7897 69.4402 48.8338 68.6615 48.7826C67.8675 48.7305 66.8607 48.5901 65.4126 48.3859L65.4075 48.3852M74.1064 41.1212L65.4075 48.3852M65.4075 48.3852C63.9574 48.1858 62.9488 48.0456 62.1671 47.8788M65.4075 48.3852L62.1671 47.8788M37.3497 91.7937L37.3497 91.7938C37.7266 93.3014 37.9935 94.3634 38.2555 95.1815C38.5143 95.9892 38.7376 96.4556 38.9822 96.7967L38.9868 96.8033L38.9914 96.8098C39.35 97.3215 39.8089 97.7549 40.3403 98.0835C40.8707 98.4116 41.4621 98.6284 42.0788 98.721C42.4412 98.7725 42.8986 98.751 43.6635 98.5899C44.4456 98.4252 45.4271 98.1432 46.8386 97.7369L46.8414 97.7361C48.2532 97.3327 49.2365 97.0497 49.9913 96.7729C50.7306 96.5017 51.1486 96.2713 51.4542 96.0209C52.442 95.2084 53.1121 93.9835 53.2803 92.6091L53.2805 92.6071C53.3266 92.2342 53.2337 91.3721 52.96 90.0284C52.7099 88.8009 52.3558 87.3756 51.9958 85.9272L51.9583 85.7761L51.6094 84.3718L53.0002 83.9726L80.6207 76.0453L82.1132 75.617L82.4897 77.1233C82.8643 78.6217 83.2351 80.1037 83.6035 81.3406C83.9949 82.6546 84.3155 83.4413 84.5199 83.7265L84.5246 83.733L84.5292 83.7396C84.8877 84.2512 85.3467 84.6846 85.8781 85.0133C86.4083 85.3412 86.9995 85.558 87.6159 85.6507C87.9785 85.7023 88.436 85.6809 89.202 85.5196C89.985 85.3548 90.9677 85.0728 92.3816 84.6665L92.3832 84.666C93.7931 84.2625 94.7763 83.9795 95.5313 83.7026C96.2718 83.431 96.688 83.201 96.9898 82.9524L96.993 82.9497C97.9815 82.14 98.6496 80.917 98.8227 79.5381C98.8752 79.0969 98.8472 78.5654 98.6939 77.7293C98.539 76.8846 98.2774 75.8312 97.9071 74.3408L97.899 74.3083L97.8984 74.3061L94.699 61.5129L94.6985 61.5109L94.6908 61.4805C94.3155 59.9885 94.0507 58.9358 93.7906 58.1223C93.5321 57.3135 93.3098 56.848 93.066 56.5079L93.0651 56.5066C92.295 55.43 91.1777 54.7557 89.9759 54.5845L89.9737 54.5842C89.6104 54.5319 89.1523 54.553 88.3837 54.7143C87.6013 54.8786 86.6203 55.1594 85.2094 55.5632L85.209 55.5633C85.2084 55.5634 85.2079 55.5636 85.2074 55.5637C83.7948 55.9697 82.8119 56.2525 82.056 56.5292C81.3204 56.7985 80.9041 57.0265 80.5999 57.2743C79.5757 58.1362 78.919 59.3567 78.7644 60.6866L78.7636 60.6929C78.7186 61.0663 78.8123 61.9297 79.0859 63.2728C79.3445 64.5425 79.7149 66.0263 80.0895 67.527L80.4403 68.9325L79.0479 69.3321L51.4228 77.2593L49.9282 77.6882L49.5533 76.1792C49.1815 74.6827 48.8106 73.2006 48.442 71.9647C48.0503 70.6517 47.7285 69.8639 47.5236 69.5782L47.5227 69.5769C46.752 68.4993 45.6391 67.826 44.4341 67.6549L44.4305 67.6543C44.0704 67.6023 43.614 67.6231 42.8448 67.7846C42.0643 67.9485 41.0853 68.2282 39.6784 68.6302L39.6666 68.6335L37.3497 91.7937ZM37.3497 91.7937L34.1492 78.9965C34.1492 78.9964 34.1492 78.9964 34.1492 78.9963C33.7722 77.4882 33.5067 76.4245 33.3509 75.5738C33.1972 74.7353 33.171 74.2054 33.2252 73.7684L33.2256 73.7653M37.3497 91.7937L33.2256 73.7653M33.2256 73.7653C33.3937 72.3879 34.0631 71.1665 35.0576 70.3482L35.0584 70.3476M33.2256 73.7653L35.0584 70.3476M35.0584 70.3476C35.3597 70.0994 35.7743 69.8705 36.5146 69.5993M35.0584 70.3476L36.5146 69.5993M62.1671 47.8788C61.4018 47.7155 60.9632 47.5475 60.6338 47.3452L62.1671 47.8788ZM36.5146 69.5993C37.2695 69.3228 38.2521 69.04 39.6644 68.6342L36.5146 69.5993Z" stroke="white" stroke-width="3"/>
</g>
<defs>
<filter id="filter0_f_230_1153" x="-4" y="-4" width="119" height="119" filterUnits="userSpaceOnUse" color-interpolation-filters="sRGB">
<feFlood flood-opacity="0" result="BackgroundImageFix"/>
<feBlend mode="normal" in="SourceGraphic" in2="BackgroundImageFix" result="shape"/>
<feGaussianBlur stdDeviation="2" result="effect1_foregroundBlur_230_1153"/>
</filter>
</defs>
</svg>
